<svg width="110" height="133" viewBox="0 0 11 19" xmlns="http://www.w3.org/2000/svg" shape-rendering="crispEdges">
  <rect x="1" y="0" width="2" height="3" fill="#1a1a1a"/>
  <rect x="2" y="1" width="1" height="2" fill="#ff6eb4"/>
  <rect x="8" y="0" width="2" height="3" fill="#1a1a1a"/>
  <rect x="8" y="1" width="1" height="2" fill="#ff6eb4"/>
  <rect x="1" y="3" width="9" height="7" fill="#1a1a1a"/>
  <rect x="3" y="5" width="2" height="2" fill="#ff6eb4"/>
  <rect x="4" y="5" width="1" height="1" fill="#fff"/>
  <rect x="7" y="5" width="2" height="2" fill="#ff6eb4"/>
  <rect x="8" y="5" width="1" height="1" fill="#fff"/>
  <rect x="5" y="7" width="1" height="1" fill="#ff9ccc"/>
  <rect x="4" y="8" width="1" height="1" fill="#ff6eb4"/>
  <rect x="6" y="8" width="1" height="1" fill="#ff6eb4"/>
  <rect x="0" y="7" width="3" height="1" fill="#555"/>
  <rect x="8" y="7" width="3" height="1" fill="#555"/>
  <rect x="2" y="10" width="7" height="6" fill="#1a1a1a"/>
  <rect x="2" y="16" width="2" height="2" fill="#1a1a1a"/>
  <rect x="7" y="16" width="2" height="2" fill="#1a1a1a"/>
  <rect x="2" y="18" width="1" height="1" fill="#ff6eb4"/>
  <rect x="3" y="18" width="1" height="1" fill="#ff6eb4"/>
  <rect x="7" y="18" width="1" height="1" fill="#ff6eb4"/>
  <rect x="8" y="18" width="1" height="1" fill="#ff6eb4"/>
  <rect x="3" y="11" width="5" height="4" fill="#2a2a2a"/>
  <rect x="9" y="13" width="2" height="1" fill="#1a1a1a"/>
  <rect x="10" y="11" width="2" height="3" fill="#1a1a1a"/>
  <rect x="9" y="10" width="2" height="2" fill="#1a1a1a"/>
</svg>
